<svg width="28" height="27" viewBox="0 0 28 27" fill="none" xmlns="http://www.w3.org/2000/svg">
<path d="M27.7501 14.875C27.7498 14.6948 27.6722 14.5235 27.5369 14.4043L22.5369 10.0293C22.3525 9.86778 22.0902 9.82899 21.8667 9.93028C21.6432 10.0318 21.4998 10.2545 21.5001 10.5V11.75H19.0001C17.2341 11.7531 15.5173 12.3304 14.1088 13.3954C12.7 14.4601 11.6763 15.9545 11.192 17.6527C10.6088 17.0746 9.82118 16.75 8.99996 16.75H5.87496C5.52981 16.75 5.24996 17.0299 5.24996 17.375V17.875L1.82445 14.875L5.24996 11.875V12.375C5.24996 12.5408 5.3158 12.6998 5.43299 12.817C5.55018 12.9342 5.70922 13 5.87496 13H11.5C11.6657 13 11.8247 12.9342 11.9419 12.817C12.0591 12.6998 12.125 12.5408 12.125 12.375V6.12503C12.125 5.95929 12.0591 5.80025 11.9419 5.68307C11.8247 5.56588 11.6657 5.50003 11.5 5.50003H11L14 2.07452L17 5.50003H16.5C16.1548 5.50003 15.875 5.77989 15.875 6.12503V10.5C15.875 10.8452 16.1548 11.125 16.5 11.125C16.8451 11.125 17.125 10.8452 17.125 10.5V6.75003H18.375C18.62 6.74975 18.8423 6.60634 18.9436 6.38312C19.0446 6.15991 19.0061 5.89819 18.8448 5.71376L14.4698 0.713749C14.3485 0.584284 14.1788 0.51062 14.0011 0.51062C13.8236 0.51062 13.654 0.584277 13.5323 0.713749L9.15733 5.71376C8.99661 5.89791 8.95783 6.15907 9.05828 6.38201C9.15901 6.60494 9.38026 6.74892 9.62496 6.75003H10.875V11.75H6.49996V10.5C6.50024 10.2545 6.35682 10.0318 6.13333 9.93028C5.90984 9.82899 5.64756 9.86778 5.46313 10.0293L0.463119 14.4043C0.32724 14.5232 0.24939 14.6948 0.24939 14.875C0.24939 15.0553 0.327233 15.2269 0.463119 15.3457L5.46313 19.7207C5.64756 19.8823 5.90984 19.9211 6.13333 19.8198C6.35682 19.7182 6.50024 19.4956 6.49996 19.25V18H8.99996C9.49717 18 9.97432 18.1976 10.3258 18.5491C10.6773 18.9007 10.8749 19.3779 10.8749 19.875V26.125C10.8749 26.4702 11.1548 26.75 11.4999 26.75C11.8451 26.75 12.1249 26.4702 12.1249 26.125V19.875C12.1272 18.0521 12.8521 16.305 14.1409 15.0159C15.4299 13.7271 17.1772 13.0023 18.9999 13H22.125C22.2907 13 22.4497 12.9341 22.5669 12.817C22.6841 12.6998 22.75 12.5407 22.75 12.375V11.875L26.1755 14.875L22.75 17.875V17.375C22.75 17.2093 22.6841 17.0502 22.5669 16.933C22.4497 16.8158 22.2907 16.75 22.125 16.75H18.9999C18.1715 16.7511 17.3772 17.0806 16.7912 17.6663C16.2056 18.2522 15.8761 19.0466 15.8749 19.875V26.125C15.8749 26.4702 16.1548 26.75 16.4999 26.75C16.8451 26.75 17.1249 26.4702 17.1249 26.125V19.875C17.1249 19.3778 17.3225 18.9006 17.6741 18.5491C18.0256 18.1976 18.5028 18 18.9999 18H21.4999V19.25C21.4996 19.4956 21.643 19.7182 21.8665 19.8198C22.09 19.9211 22.3523 19.8823 22.5367 19.7207L27.5368 15.3457C27.6721 15.2266 27.7498 15.0553 27.7501 14.875Z" fill="#FFED00"/>
</svg>
