<svg width="40" height="40" viewBox="0 0 40 40" fill="none" xmlns="http://www.w3.org/2000/svg">
<path fill-rule="evenodd" clip-rule="evenodd" d="M34.589 21.0872C33.3256 20.7677 32.0268 21.5434 31.6869 22.8027L30.6349 26.7L27.9056 29.4758C26.9544 30.4433 26.338 31.6918 26.1476 33.0355L25.5756 37.0779H25.5752C25.5478 37.266 25.5963 37.457 25.7101 37.609C25.824 37.7611 25.9936 37.8615 26.1817 37.8883C26.3699 37.9148 26.5609 37.8657 26.7124 37.7512C26.8641 37.6368 26.9639 37.4668 26.9901 37.2787L27.5622 33.2364C27.7098 32.1952 28.1871 31.2267 28.9241 30.4774L31.7844 27.5678C31.8708 27.4801 31.9333 27.3714 31.9655 27.2525L33.0651 23.1767C33.2079 22.6478 33.7251 22.3443 34.2372 22.4734V22.4737H34.2401L34.6782 22.585C35.1779 22.7106 35.4681 23.2066 35.3284 23.7234L33.6511 29.9362C33.602 30.1192 33.6275 30.3143 33.7222 30.4788C33.8169 30.6429 33.9732 30.7628 34.1562 30.8119C34.5379 30.9146 34.9301 30.6885 35.0325 30.3072L36.7098 24.0973C37.0497 22.8384 36.2901 21.5179 35.0271 21.1988L34.589 21.0872Z" fill="white"/>
<path fill-rule="evenodd" clip-rule="evenodd" d="M35.5547 12.8883C35.5263 12.8915 35.4986 12.8963 35.4708 12.9027C34.2467 13.1376 33.3905 14.2837 33.548 15.5165L34.0811 21.757V21.7573C34.0929 21.9493 34.1819 22.1284 34.3276 22.2543C34.4733 22.38 34.6637 22.4415 34.8557 22.4249C35.0476 22.4083 35.2246 22.3152 35.3467 22.1663C35.4689 22.0175 35.5256 21.8255 35.5043 21.6343L34.9686 15.3628V15.3631C34.9676 15.3539 34.9666 15.345 34.9657 15.3357C34.9029 14.8451 35.2198 14.4064 35.7415 14.3063H35.7559C36.3295 14.1951 36.8681 14.5709 36.9586 15.1097L38.4516 24.0006C38.8234 26.2127 38.2915 28.4367 37.327 30.5676L33.5151 38.9868L33.5148 38.9871C33.4354 39.1599 33.4284 39.3576 33.495 39.5358C33.5617 39.714 33.6969 39.8581 33.8704 39.9365C34.0438 40.0149 34.2415 40.021 34.4195 39.9531C34.5971 39.8855 34.7406 39.7494 34.8181 39.5756L38.6274 31.1564C39.6647 28.8656 40.2954 26.3489 39.8607 23.7638L38.3678 14.8729C38.1426 13.5329 36.8231 12.647 35.4852 12.9062L35.569 12.8918L35.5547 12.8883Z" fill="white"/>
<path fill-rule="evenodd" clip-rule="evenodd" d="M5.41037 21.0872L4.97224 21.1984C3.70914 21.5175 2.94963 22.838 3.28955 24.097L4.96938 30.3069L4.9697 30.3072C5.01211 30.4969 5.13041 30.6614 5.29718 30.7622C5.46396 30.8629 5.66453 30.8913 5.85267 30.8406C6.04049 30.7899 6.19992 30.6646 6.29335 30.494C6.38678 30.3232 6.40687 30.1217 6.3482 29.9361L4.6709 23.7234C4.53123 23.2066 4.82141 22.7112 5.32108 22.5849L5.76208 22.4737C6.27388 22.3436 6.79139 22.6481 6.93424 23.177L8.03375 27.2528V27.2525C8.06596 27.3714 8.12846 27.4801 8.2152 27.5678L11.0755 30.4774C11.8121 31.2266 12.2898 32.1951 12.4375 33.2364L13.0095 37.2787H13.0092C13.0354 37.4668 13.1352 37.6367 13.2869 37.7512C13.4384 37.8656 13.6294 37.9147 13.8176 37.8883C14.0057 37.8615 14.1753 37.7611 14.2892 37.609C14.403 37.4569 14.4515 37.266 14.4241 37.0779L13.852 33.0355C13.6616 31.6918 13.0452 30.4433 12.094 29.4758L9.36474 26.7L8.31275 22.8026C7.97282 21.5434 6.67373 20.7677 5.41063 21.0871L5.41037 21.0872Z" fill="white"/>
<path d="M23.9148 5.35626C23.476 5.30207 23.2863 5.40058 23.0079 5.6129H23.0051L19.5532 8.29111H19.5529C19.4008 8.40652 19.301 8.57771 19.2761 8.76707C19.2513 8.95644 19.3029 9.14772 19.4199 9.29883C19.537 9.44963 19.7095 9.5475 19.8992 9.57045C20.0886 9.5934 20.2796 9.53952 20.4292 9.42093L23.7835 6.81821C24.2321 6.90812 24.5928 7.25688 24.5928 7.73032C24.5928 7.86039 24.5657 7.98185 24.5201 8.09311C24.4525 8.21171 24.3877 8.32648 24.4002 8.3134C24.2599 8.44921 24.1814 8.63666 24.183 8.83209C24.1846 9.0272 24.2662 9.21338 24.4088 9.34696C24.551 9.48053 24.742 9.55003 24.9372 9.5392C25.1323 9.52836 25.3144 9.43814 25.441 9.28958C25.6852 9.03007 25.7589 8.79862 25.7898 8.7457C25.8055 8.71956 25.8195 8.69214 25.8319 8.6644C25.9544 8.37685 26.0217 8.05932 26.0217 7.73002C26.0217 6.51439 25.0988 5.50125 23.9148 5.35304L23.9148 5.35626Z" fill="#FFED00"/>
<path d="M16.0674 5.35626C14.8834 5.50451 13.9631 6.51737 13.9631 7.73324C13.9631 8.06288 14.0304 8.38009 14.1529 8.66763C14.1643 8.69568 14.1774 8.72278 14.1921 8.74892C14.2227 8.80184 14.2992 9.03329 14.5438 9.2928C14.6704 9.44136 14.8528 9.53158 15.0476 9.54242C15.2428 9.55326 15.4338 9.48376 15.576 9.35018C15.7186 9.2166 15.8002 9.03042 15.8018 8.835C15.8034 8.63989 15.7249 8.45244 15.5846 8.31663C15.5974 8.33097 15.5323 8.21366 15.4647 8.09634C15.4191 7.98507 15.392 7.86393 15.392 7.73386C15.392 7.26108 15.7536 6.91488 16.2013 6.82428L19.5527 9.42406V9.42375C19.7026 9.54266 19.8933 9.59622 20.083 9.57326C20.2724 9.55031 20.4453 9.45275 20.5623 9.30164C20.6793 9.15085 20.731 8.95957 20.7061 8.77021C20.6809 8.58084 20.5814 8.40964 20.429 8.29424L16.9772 5.61603H16.9743C16.6966 5.40402 16.5068 5.30424 16.0675 5.3594L16.0674 5.35626Z" fill="#FFED00"/>
<path fill-rule="evenodd" clip-rule="evenodd" d="M4.43074 12.8883L4.5146 12.9027C3.17656 12.6435 1.85705 13.5294 1.63199 14.8694L0.13902 23.7603C-0.295289 26.3455 0.335444 28.8621 1.3724 31.1529L5.1817 39.5721H5.18138C5.25855 39.7462 5.40236 39.882 5.57997 39.9499C5.75791 40.0175 5.95561 40.0114 6.12908 39.9333C6.30255 39.8549 6.43775 39.7105 6.5044 39.5323C6.57106 39.3541 6.56403 39.1567 6.48463 38.9836L2.67281 30.5644C1.70824 28.4336 1.17632 26.2096 1.54816 23.9974L3.04113 15.1065C3.1317 14.5678 3.67027 14.1919 4.2439 14.3032H4.24359H4.25794C4.77962 14.4033 5.09654 14.8419 5.03376 15.3325C5.0328 15.3415 5.03185 15.3504 5.03089 15.3596L4.49518 21.6311V21.6308C4.47381 21.8224 4.53057 22.014 4.6527 22.1629C4.77484 22.3117 4.95181 22.4048 5.14377 22.4214C5.33573 22.438 5.52611 22.3765 5.67184 22.2509C5.81757 22.1252 5.90653 21.9458 5.91833 21.7538L6.45148 15.5133C6.60901 14.2802 5.75282 13.1345 4.52863 12.8992C4.50089 12.8928 4.47315 12.888 4.44477 12.8848L4.43074 12.8883Z" fill="white"/>
<path fill-rule="evenodd" clip-rule="evenodd" d="M12.8503 8.1458C11.6746 8.1458 10.7042 9.11593 10.7042 10.291V11.6354C10.7042 12.8108 11.6746 13.7806 12.8503 13.7806H27.1351C28.3108 13.7806 29.2783 12.8105 29.2783 11.6354V10.291C29.2783 9.1156 28.3108 8.1458 27.1351 8.1458H12.8503ZM12.8503 9.57688H27.1351C27.5426 9.57688 27.8468 9.88357 27.8468 10.291V11.6354C27.8468 12.0428 27.5426 12.3495 27.1351 12.3495H12.8503C12.4427 12.3495 12.136 12.0428 12.136 11.6354V10.291C12.136 9.88357 12.4427 9.57688 12.8503 9.57688Z" fill="white"/>
<path fill-rule="evenodd" clip-rule="evenodd" d="M11.3907 13.0638V23.2238C11.3907 24.1814 12.1726 24.9896 13.135 24.9896H26.8476C27.81 24.9896 28.5941 24.1808 28.5918 23.2209L28.5724 14.9968H27.1435L27.1629 23.2209C27.1636 23.4253 27.0249 23.5557 26.8476 23.5557H13.135C12.9577 23.5557 12.8225 23.4272 12.8225 23.2209V13.0609L11.3907 13.0638Z" fill="white"/>
<path fill-rule="evenodd" clip-rule="evenodd" d="M19.2764 8.86317L19.285 22.4991H20.7139L20.7053 8.86562L19.2764 8.86317Z" fill="white"/>
<path fill-rule="evenodd" clip-rule="evenodd" d="M28.9099 1.42824C28.6187 1.42824 28.3569 1.60486 28.2475 1.87456C28.1385 2.14427 28.2039 2.45318 28.413 2.65562L31.2568 5.49836C31.3898 5.63672 31.5728 5.71579 31.7648 5.7177C31.9567 5.71961 32.1414 5.64437 32.2769 5.50857C32.4127 5.37275 32.4883 5.18817 32.4864 4.99658C32.4845 4.80465 32.4054 4.62134 32.267 4.4884L29.4232 1.64566C29.2887 1.50667 29.1034 1.42824 28.9098 1.42824H28.9099Z" fill="#FFED00"/>
<path fill-rule="evenodd" clip-rule="evenodd" d="M31.7482 1.43109C31.5626 1.43619 31.3866 1.51302 31.2571 1.64564L28.4134 4.48838C28.275 4.62132 28.1959 4.80463 28.194 4.99655C28.1921 5.18815 28.2673 5.37274 28.4032 5.50854C28.539 5.64435 28.7237 5.71959 28.9156 5.71768C29.1076 5.71576 29.2906 5.6367 29.4236 5.49834L32.2673 2.6556C32.4775 2.45029 32.5403 2.13691 32.4255 1.86625C32.311 1.59559 32.0419 1.4228 31.7482 1.43109Z" fill="#FFED00"/>
<path fill-rule="evenodd" clip-rule="evenodd" d="M4.27485 8.09454e-06C3.98371 8.09454e-06 3.72192 0.176627 3.61254 0.446333C3.50349 0.716039 3.56885 1.02495 3.77803 1.22739L6.62178 4.07014C6.75443 4.20913 6.93778 4.28883 7.13007 4.29106C7.32236 4.29329 7.50762 4.21806 7.64378 4.08193C7.77963 3.94612 7.85519 3.7609 7.85297 3.56866C7.85073 3.37642 7.77101 3.19311 7.63199 3.06017L4.78824 0.217425C4.65368 0.0784301 4.4684 0 4.27485 0V8.09454e-06Z" fill="#FFED00"/>
<path fill-rule="evenodd" clip-rule="evenodd" d="M7.11236 0.00286631C6.92678 0.00796711 6.75075 0.0847974 6.62129 0.217418L3.77755 3.06016C3.63852 3.1931 3.5588 3.37641 3.55657 3.56865C3.55433 3.76089 3.62991 3.94579 3.76575 4.08192C3.90191 4.21773 4.08686 4.29328 4.27914 4.29105C4.47175 4.28882 4.65478 4.20912 4.78776 4.07013L7.6315 1.22739C7.84164 1.02176 7.90414 0.708696 7.78966 0.438035C7.67487 0.167373 7.40606 -0.00509918 7.11237 0.0028744L7.11236 0.00286631Z" fill="#FFED00"/>
<path fill-rule="evenodd" clip-rule="evenodd" d="M33.9107 6.42703C33.6195 6.42735 33.3577 6.60401 33.2487 6.87378C33.1393 7.14355 33.205 7.45254 33.4139 7.65503L35.543 9.78416H35.5433C35.6763 9.92256 35.8593 10.0016 36.0513 10.0036C36.2432 10.0055 36.4279 9.92989 36.5637 9.79405C36.6992 9.65852 36.7748 9.4739 36.7729 9.28194C36.771 9.08997 36.6919 8.90693 36.5535 8.77396L34.4244 6.64483H34.4241C34.2895 6.5058 34.1042 6.42703 33.9107 6.42703H33.9107Z" fill="#FFED00"/>
<path fill-rule="evenodd" clip-rule="evenodd" d="M36.0348 6.43029C35.8492 6.43539 35.6732 6.51256 35.5437 6.64521L33.4146 8.77435H33.4142C33.2759 8.90732 33.1968 9.09035 33.1949 9.28232C33.1929 9.47429 33.2685 9.65891 33.404 9.79443C33.5399 9.93028 33.7245 10.0058 33.9165 10.0039C34.1084 10.002 34.2915 9.92294 34.4244 9.78455L36.5536 7.65541H36.5539C36.764 7.44974 36.8269 7.13628 36.7121 6.86587C36.5976 6.59514 36.3288 6.42231 36.0348 6.43029Z" fill="#FFED00"/>
</svg>
