<svg width="36" height="28" viewBox="0 0 36 28" fill="none" xmlns="http://www.w3.org/2000/svg">
<path d="M35.2189 14.482C34.8051 14.482 34.4696 14.8175 34.4696 15.2313V24.5985C34.4696 25.2194 33.9664 25.7225 33.3456 25.7225H2.62267C2.00179 25.7225 1.49866 25.2194 1.49866 24.5985V2.86765C1.49866 2.24677 2.00179 1.74364 2.62267 1.74364H19.1081C19.5219 1.74364 19.8575 1.40811 19.8575 0.994303C19.8575 0.580497 19.5219 0.244965 19.1081 0.244965H2.62267C1.92719 0.244965 1.26016 0.521286 0.768076 1.01304C0.276321 1.50513 0 2.17216 0 2.86763V24.5985C0 25.2939 0.276321 25.961 0.768076 26.453C1.26016 26.9448 1.9272 27.2211 2.62267 27.2211H33.3456C34.041 27.2211 34.7081 26.9448 35.2001 26.453C35.6919 25.961 35.9682 25.2939 35.9682 24.5985V15.2313C35.9682 15.0326 35.8893 14.8419 35.7488 14.7014C35.6083 14.5609 35.4176 14.482 35.2189 14.482L35.2189 14.482Z" fill="white"/>
</svg>
