<svg width="37" height="40" viewBox="0 0 37 40" fill="none" xmlns="http://www.w3.org/2000/svg">
<path d="M35 29.0747C34.8808 29.5747 34.0759 32.4996 31.6666 32.4996C31.2066 32.4996 30.8335 32.8726 30.8335 33.333V38.3328H15.0004V32.4996C15.0004 29.8629 13.3654 29.1662 12.5005 29.1662H7.50059C7.05026 29.1955 6.60918 29.0295 6.28997 28.7103C5.97077 28.3911 5.80477 27.95 5.83407 27.4997V24.3932C5.83379 24.1547 5.73168 23.9278 5.55311 23.7699C4.71777 22.9993 3.6363 22.5492 2.50076 22.4999C2.30629 22.5236 2.11043 22.4681 1.95697 22.3461C1.80352 22.2239 1.70558 22.0456 1.68493 21.8506L5.72975 14.5172V14.5175C5.79811 14.3942 5.83382 14.2558 5.8341 14.1149V12.5C5.83745 9.62788 6.97971 6.87432 9.01066 4.84308C11.0416 2.81242 13.7951 1.66988 16.6669 1.66653H18.3334L18.3337 0H16.6669C13.353 0.00362712 10.176 1.32196 7.83283 3.66504C5.48939 6.00848 4.17135 9.18554 4.1675 12.4998V13.9007L0.105106 21.2641C0.0370273 21.3871 0.00131593 21.5258 0.00103737 21.6664C-0.0184935 22.3352 0.238474 22.9825 0.711675 23.4557C1.18488 23.9289 1.83222 24.1859 2.50098 24.1663C3.107 24.2001 3.68845 24.4177 4.16751 24.7905V27.4997C4.14156 28.3914 4.48419 29.2544 5.11506 29.8855C5.74618 30.5163 6.60916 30.859 7.50085 30.833H12.4764C12.6198 30.8431 13.3338 30.9664 13.3338 32.4996V39.166H13.3341C13.3341 39.387 13.4217 39.599 13.578 39.7552C13.7345 39.9115 13.9463 39.9994 14.1672 39.9994H31.6668C31.8878 39.9994 32.0998 39.9115 32.256 39.7552C32.4123 39.599 32.5002 39.387 32.5002 39.166V34.0897C35.1042 33.5972 36.3466 30.849 36.6502 29.3297C36.6614 29.2759 36.667 29.2212 36.6667 29.1662V24.9998H35.0001L35 29.0747Z" fill="white"/>
</svg>
