<svg width="40" height="30" viewBox="0 0 40 30" fill="none" xmlns="http://www.w3.org/2000/svg">
<path d="M37.4998 3.73064e-06H2.49999C1.839 -0.00111234 1.20449 0.260324 0.735783 0.726572C0.267035 1.19253 0.00249999 1.82564 0 2.48692V23.0025C0.00251113 23.6638 0.26702 24.2969 0.735783 24.7629C1.20453 25.2291 1.83899 25.4906 2.49999 25.4895H15.6406C15.6323 25.5408 15.627 25.5927 15.625 25.6449V28.1317H14.0625C13.8971 28.1306 13.738 28.1959 13.6208 28.3125C13.5034 28.4291 13.4375 28.5879 13.4375 28.7534C13.4375 28.9188 13.5034 29.0776 13.6208 29.1942C13.738 29.3108 13.8971 29.3759 14.0625 29.375H25.3125C25.4779 29.3759 25.637 29.3108 25.7542 29.1942C25.8716 29.0776 25.9375 28.9188 25.9375 28.7534C25.9375 28.5879 25.8716 28.4291 25.7542 28.3125C25.637 28.1959 25.4779 28.1306 25.3125 28.1317H23.75V25.6449C23.748 25.5927 23.7427 25.5408 23.7344 25.4895H37.5C38.161 25.4906 38.7955 25.2291 39.2642 24.7629C39.733 24.2969 39.9975 23.6638 40 23.0025V2.48692C39.9975 1.82565 39.733 1.19257 39.2642 0.726572C38.7955 0.260338 38.161 -0.00113912 37.5 3.73064e-06H37.4998ZM22.4999 28.1313H16.8749V25.6445H22.4999V28.1313ZM38.7498 23.0024V23.0021C38.749 23.3328 38.6167 23.6497 38.3824 23.8827C38.148 24.1159 37.8305 24.2465 37.4999 24.2457H2.50002C2.16939 24.2465 1.85187 24.1159 1.61753 23.8827C1.38316 23.6497 1.2509 23.3328 1.25007 23.0021V22.6913H38.7499L38.7498 23.0024ZM38.7498 21.4483L1.24999 21.448V2.48664C1.25083 2.15601 1.38309 1.83904 1.61746 1.60607C1.85183 1.37282 2.16935 1.24223 2.49995 1.24308H37.4998C37.8304 1.24224 38.148 1.37282 38.3823 1.60607C38.6167 1.83905 38.7489 2.15602 38.7498 2.48664L38.7498 21.4483Z" fill="white"/>
</svg>
